<svg width="1400" height="820" viewBox="0 0 1400 820" fill="none" xmlns="http://www.w3.org/2000/svg">
<path d="M1400 0H0V820H1400V0Z" fill="#FFD866"/>
<path d="M700 632C842.71 632 958.4 516.31 958.4 373.6C958.4 230.89 842.71 115.2 700 115.2C557.29 115.2 441.6 230.89 441.6 373.6C441.6 516.31 557.29 632 700 632Z" fill="#FFEDB8"/>
<path fill-rule="evenodd" clip-rule="evenodd" d="M859.6 223.3L657.4 545.1H1131.8C1134.4 545.1 1137 545.2 1139.6 545.5V545.1L937.5 223.3C916.1 189.2 881 189.2 859.6 223.3Z" fill="#A69F88"/>
<path fill-rule="evenodd" clip-rule="evenodd" d="M462.5 223.3L260.3 545.1V545.5C262.9 545.3 265.5 545.1 268.1 545.1H742.5L540.4 223.3C519 189.2 483.9 189.2 462.5 223.3Z" fill="#A69F88"/>
<path fill-rule="evenodd" clip-rule="evenodd" d="M1131.9 545.1H1123.1V521H1160.5C1170.8 521 1172.2 509.5 1164.9 502.2L1149.6 486.9H1160.5C1170.8 486.9 1172.2 475.4 1164.9 468.1L1149.6 452.8H1160.5C1170.8 452.8 1172.2 441.3 1164.9 434L1122.4 391.5C1119.9 389 1116.7 387.7 1113.4 387.6C1110.1 387.7 1106.9 389 1104.4 391.5L1062 434C1059.4 436.5 1058 439.6 1057.6 442.5C1056.7 439.2 1054.8 435.8 1051.9 432.9L1030.8 411.8H1045.8C1059.9 411.8 1061.9 395.9 1051.9 385.9L993.3 327.3C989.9 323.9 985.4 322.1 981 322C976.5 322.1 972.1 323.9 968.7 327.3L910 386C900 396 902 411.9 916.1 411.9H931.1L910 432.9C900 442.9 902 458.8 916.1 458.8H931.1L910 479.9C900 489.9 902 505.8 916.1 505.8H966.8V545.1H515.6V496.3H577.3C594.2 496.3 596.6 477.3 584.6 465.3L559.4 440.1H577.3C594.2 440.1 596.6 421.1 584.6 409.1L559.4 383.9H577.3C594.2 383.9 596.6 364.9 584.6 352.9L514.4 282.7C510.3 278.6 505 276.5 499.6 276.3C494.2 276.5 488.9 278.6 484.8 282.7L414.6 352.9C402.6 364.9 405 383.9 421.9 383.9H439.8L414.7 409C402.7 421 405.1 440 422 440H439.9L414.7 465.2C402.7 477.2 405.1 496.2 422 496.2H482.8V545H330V514.3H372.3C383.9 514.3 385.5 501.3 377.3 493.1L360 475.9H372.3C383.9 475.9 385.5 462.9 377.3 454.7L360 437.4H372.3C383.9 437.4 385.5 424.4 377.3 416.2L329.3 368.2C326.5 365.4 322.9 363.9 319.2 363.8C315.5 363.9 311.9 365.4 309.1 368.2L261.1 416.2C252.9 424.4 254.5 437.4 266.1 437.4H278.4L261 454.6C252.8 462.8 254.4 475.8 266 475.8H278.3L261 493.2C252.8 501.4 254.4 514.4 266 514.4H307.6V545.1H268.2C223.2 545.1 186.4 581.9 186.4 626.9C186.4 671.9 223.2 708.7 268.2 708.7H1132C1177 708.7 1213.8 671.9 1213.8 626.9C1213.7 581.9 1176.9 545.1 1131.9 545.1ZM1103.2 545.1H994.2V505.8H1045.7C1059.8 505.8 1061.8 489.9 1051.8 479.9L1030.7 458.8H1045.7C1053.6 458.8 1057.7 453.9 1058 447.8C1059.2 450.7 1062 452.8 1066.3 452.8H1077.2L1061.9 468.1C1054.6 475.4 1056.1 486.9 1066.3 486.9H1077.2L1061.9 502.2C1054.6 509.5 1056.1 521 1066.3 521H1103.1V545.1H1103.2Z" fill="#C2A550"/>
<path d="M807.1 282.3C835.543 282.3 858.6 259.243 858.6 230.8C858.6 202.357 835.543 179.3 807.1 179.3C778.657 179.3 755.6 202.357 755.6 230.8C755.6 259.243 778.657 282.3 807.1 282.3Z" fill="#CCCCCC"/>
<path fill-rule="evenodd" clip-rule="evenodd" d="M815.7 238.9V235.6C822.9 232.2 828 224.9 828 216.4C828 204.7 818.5 195.2 806.8 195.2C795.1 195.2 785.6 204.7 785.6 216.4C785.6 224.9 790.6 232.2 797.9 235.6V238.9C784.9 242.8 775.4 254.8 775.4 269V271.3C780.9 275.6 787.2 278.8 794.1 280.6L807.1 293.6L820.1 280.6C826.8 278.9 832.9 275.8 838.3 271.8V269C838.2 254.8 828.7 242.8 815.7 238.9Z" fill="#808080"/>
<path fill-rule="evenodd" clip-rule="evenodd" d="M952.6 380H896.2C887.5 380 880.4 387.1 880.4 395.8V436.9H968.5V395.8C968.5 387.1 961.4 380 952.6 380Z" fill="#754444"/>
<path fill-rule="evenodd" clip-rule="evenodd" d="M957.3 380H951.9C945.8 380 940.7 385 940.7 391.2V437H968.4V391.2C968.5 385 963.5 380 957.3 380Z" fill="#542828"/>
<path fill-rule="evenodd" clip-rule="evenodd" d="M864.5 365.7C858.1 365.7 852.3 370.9 851.4 377.3L843.7 436.9L868 427.8L874.6 377.2C875.3 370.9 870.8 365.7 864.5 365.7Z" fill="#855859"/>
<path fill-rule="evenodd" clip-rule="evenodd" d="M855.2 413.8H818.7C812.3 413.8 807.1 419 807.1 425.4C807.1 431.8 812.3 437 818.7 437H855.2C861.6 437 866.8 431.8 866.8 425.4C866.8 419 861.6 413.8 855.2 413.8Z" fill="#FCD1C0"/>
<path fill-rule="evenodd" clip-rule="evenodd" d="M890.8 300.7H872.1C863.3 300.7 856.2 307.9 856.2 316.6V342.1C856.2 350.9 863.4 358 872.1 358H890.8C899.6 358 906.7 350.8 906.7 342.1V316.6C906.7 307.9 899.6 300.7 890.8 300.7Z" fill="#FCD1C0"/>
<path fill-rule="evenodd" clip-rule="evenodd" d="M907.2 365.7H870.4C861.9 365.7 854.9 372.3 854.1 380.6L853.9 380.8L852.5 382.4C847.4 388.2 847.4 397.9 852.6 403.7L853.8 405.1L854 405.3V436.9H912.3V370.8C912.3 368 910 365.7 907.2 365.7Z" fill="#FFABAE"/>
<path fill-rule="evenodd" clip-rule="evenodd" d="M906.4 365.7C900 365.7 894.8 370.9 894.8 377.3V436.9L917.9 427.8V377.2C917.9 370.9 912.7 365.7 906.4 365.7Z" fill="#855859"/>
<path fill-rule="evenodd" clip-rule="evenodd" d="M873.9 365.9C873.9 370 877.3 373.4 881.4 373.4C885.5 373.4 888.9 370 888.9 365.9V350.7H873.8V365.9H873.9Z" fill="#FCD1C0"/>
<path fill-rule="evenodd" clip-rule="evenodd" d="M906.4 413.8H869.9C863.5 413.8 858.3 419 858.3 425.4C858.3 431.8 863.5 437 869.9 437H906.4C912.8 437 918 431.8 918 425.4C917.9 419 912.7 413.8 906.4 413.8Z" fill="#FCD1C0"/>
<path fill-rule="evenodd" clip-rule="evenodd" d="M862 345.2C862 349 865.1 352.1 868.9 352.1C872.7 352.1 875.8 349 875.8 345.2V345.1H862V345.2Z" fill="white"/>
<path fill-rule="evenodd" clip-rule="evenodd" d="M700.7 380H644.3C635.6 380 628.5 387.1 628.5 395.8V436.9H716.6V395.8C716.6 387.1 709.4 380 700.7 380Z" fill="#754444"/>
<path fill-rule="evenodd" clip-rule="evenodd" d="M705.4 380H700C693.9 380 688.8 385 688.8 391.2V437H716.5V391.2C716.6 385 711.5 380 705.4 380Z" fill="#542828"/>
<path fill-rule="evenodd" clip-rule="evenodd" d="M612.5 365.7C606.1 365.7 600.3 370.9 599.4 377.3L591.7 436.9L616 427.8L622.6 377.2C623.4 370.9 618.9 365.7 612.5 365.7Z" fill="#84659E"/>
<path fill-rule="evenodd" clip-rule="evenodd" d="M603.3 413.8H566.8C560.4 413.8 555.2 419 555.2 425.4C555.2 431.8 560.4 437 566.8 437H603.3C609.7 437 614.9 431.8 614.9 425.4C614.8 419 609.6 413.8 603.3 413.8Z" fill="#FCD1C0"/>
<path fill-rule="evenodd" clip-rule="evenodd" d="M638.9 300.7H620.2C611.4 300.7 604.3 307.9 604.3 316.6V342.1C604.3 350.9 611.5 358 620.2 358H638.9C647.7 358 654.8 350.8 654.8 342.1V316.6C654.8 307.9 647.7 300.7 638.9 300.7Z" fill="#FCD1C0"/>
<path fill-rule="evenodd" clip-rule="evenodd" d="M639.2 300.7V336.4C639.2 341.3 643.2 345.3 648.1 345.3H654.5C654.7 344.3 654.8 343.2 654.8 342.2V316.7C654.8 308 647.8 300.9 639.2 300.7Z" fill="#735139"/>
<path fill-rule="evenodd" clip-rule="evenodd" d="M655.3 365.7H618.5C609.5 365.7 602.1 373.1 602.1 382.1V436.9H660.4V370.8C660.4 368 658.1 365.7 655.3 365.7Z" fill="#D5A8FA"/>
<path fill-rule="evenodd" clip-rule="evenodd" d="M654.4 365.7C648 365.7 642.8 370.9 642.8 377.3V436.9L665.9 427.8V377.2C666 370.9 660.8 365.7 654.4 365.7Z" fill="#84659E"/>
<path fill-rule="evenodd" clip-rule="evenodd" d="M622 365.9C622 370 625.4 373.4 629.5 373.4C633.6 373.4 637 370 637 365.9V350.7H622V365.9Z" fill="#FCD1C0"/>
<path fill-rule="evenodd" clip-rule="evenodd" d="M610.1 345.2C610.1 349 613.2 352.1 617 352.1C620.8 352.1 623.9 349 623.9 345.2V345.1H610.2L610.1 345.2Z" fill="white"/>
<path fill-rule="evenodd" clip-rule="evenodd" d="M588.2 391.9C578.2 391.9 569.2 395.9 562.7 402.5C556.2 409 552.1 418 552.1 428H562C562 420.8 564.9 414.2 569.7 409.5C574.4 404.8 581 401.8 588.2 401.8C595.4 401.8 602 404.7 606.7 409.5C611.4 414.2 614.4 420.8 614.4 428H624.3C624.3 418 620.3 409 613.7 402.5C607.2 396 598.1 391.9 588.2 391.9Z" fill="#666666"/>
<path fill-rule="evenodd" clip-rule="evenodd" d="M654.4 413.8H617.9C611.5 413.8 606.3 419 606.3 425.4C606.3 431.8 611.5 437 617.9 437H654.4C660.8 437 666 431.8 666 425.4C666 419 660.8 413.8 654.4 413.8Z" fill="#FCD1C0"/>
<path fill-rule="evenodd" clip-rule="evenodd" d="M831 380H774.6C765.9 380 758.8 387.1 758.8 395.8V436.9H846.9V395.8C846.9 387.1 839.7 380 831 380Z" fill="#754444"/>
<path fill-rule="evenodd" clip-rule="evenodd" d="M835.7 380H830.3C824.2 380 819.1 385 819.1 391.2V437H846.8V391.2C846.9 385 841.9 380 835.7 380Z" fill="#542828"/>
<path fill-rule="evenodd" clip-rule="evenodd" d="M742.8 365.7C736.4 365.7 730.6 370.9 729.7 377.3L722 436.9L746.3 427.8L752.9 377.2C753.7 370.9 749.2 365.7 742.8 365.7Z" fill="#3EA861"/>
<path fill-rule="evenodd" clip-rule="evenodd" d="M733.6 413.8H697.1C690.7 413.8 685.5 419 685.5 425.4C685.5 431.8 690.7 437 697.1 437H733.6C740 437 745.2 431.8 745.2 425.4C745.2 419 740 413.8 733.6 413.8Z" fill="#FCD1C0"/>
<path fill-rule="evenodd" clip-rule="evenodd" d="M769.2 300.7H750.5C741.7 300.7 734.6 307.9 734.6 316.6V342.1C734.6 350.9 741.8 358 750.5 358H769.2C778 358 785.1 350.8 785.1 342.1V316.6C785.1 307.9 778 300.7 769.2 300.7Z" fill="#FCD1C0"/>
<path fill-rule="evenodd" clip-rule="evenodd" d="M769.5 300.7V336.4C769.5 341.3 773.5 345.3 778.4 345.3H784.8C785 344.3 785.1 343.2 785.1 342.2V316.7C785.1 308 778.1 300.9 769.5 300.7Z" fill="#735139"/>
<path fill-rule="evenodd" clip-rule="evenodd" d="M769.2 300.7H750.5C741.7 300.7 734.6 307.9 734.6 316.6V327.7H785.2V316.6C785.1 307.9 778 300.7 769.2 300.7Z" fill="#3EA861"/>
<path fill-rule="evenodd" clip-rule="evenodd" d="M785.6 365.7H748.8C739.8 365.7 732.4 373.1 732.4 382.1V436.9H790.7V370.8C790.7 368 788.4 365.7 785.6 365.7Z" fill="#58E888"/>
<path fill-rule="evenodd" clip-rule="evenodd" d="M784.8 365.7C778.4 365.7 773.2 370.9 773.2 377.3V436.9L796.3 427.8V377.2C796.3 370.9 791.1 365.7 784.8 365.7Z" fill="#3EA861"/>
<path fill-rule="evenodd" clip-rule="evenodd" d="M752.3 365.9C752.3 370 755.7 373.4 759.8 373.4C763.9 373.4 767.3 370 767.3 365.9V350.7H752.2V365.9H752.3Z" fill="#FCD1C0"/>
<path fill-rule="evenodd" clip-rule="evenodd" d="M797.7 321H780V327.8H797.7C799.6 327.8 801.1 326.3 801.1 324.4C801 322.5 799.5 321 797.7 321Z" fill="#3EA861"/>
<path fill-rule="evenodd" clip-rule="evenodd" d="M749.1 315.4H743.4C740.8 315.4 738.6 317.6 738.6 320.2V323.5H753.9V320.2C753.9 317.6 751.7 315.4 749.1 315.4Z" fill="white"/>
<path fill-rule="evenodd" clip-rule="evenodd" d="M784.8 413.8H748.3C741.9 413.8 736.7 419 736.7 425.4C736.7 431.8 741.9 437 748.3 437H784.8C791.2 437 796.4 431.8 796.4 425.4C796.3 419 791.1 413.8 784.8 413.8Z" fill="#FCD1C0"/>
<path fill-rule="evenodd" clip-rule="evenodd" d="M747.2 334H743.6V331.2H729.7V336.1C729.7 338.8 731.9 341 734.6 341H738.7C741.3 341 743.5 338.9 743.6 336.3H747.2C747.3 338.9 749.5 341 752.1 341H756.2C758.9 341 761.1 338.8 761.1 336.1V331.2H747.2V334Z" fill="#4D4D4D"/>
<path fill-rule="evenodd" clip-rule="evenodd" d="M740.4 345.2C740.4 349 743.5 352.1 747.3 352.1C751.1 352.1 754.2 349 754.2 345.2V345.1H740.5L740.4 345.2Z" fill="white"/>
<path fill-rule="evenodd" clip-rule="evenodd" d="M803.8 509.4V501.2H776.8C747 501.2 722.9 528.8 722.9 562.8C722.9 596.8 747 624.3 776.8 624.3H803.8V616.1C819.9 605.5 830.8 585.6 830.8 562.8C830.7 540 819.9 520.1 803.8 509.4Z" fill="#666666"/>
<path d="M803.8 624.2C833.568 624.2 857.7 596.666 857.7 562.7C857.7 528.735 833.568 501.2 803.8 501.2C774.032 501.2 749.9 528.735 749.9 562.7C749.9 596.666 774.032 624.2 803.8 624.2Z" fill="#808080"/>
<path d="M803.8 596.9C820.369 596.9 833.8 581.588 833.8 562.7C833.8 543.812 820.369 528.5 803.8 528.5C787.231 528.5 773.8 543.812 773.8 562.7C773.8 581.588 787.231 596.9 803.8 596.9Z" fill="#999999"/>
<path fill-rule="evenodd" clip-rule="evenodd" d="M495.3 509.4V501.2H468.3C438.5 501.2 414.4 528.8 414.4 562.8C414.4 596.8 438.5 624.3 468.3 624.3H495.3V616.1C511.4 605.5 522.3 585.6 522.3 562.8C522.3 540 511.4 520.1 495.3 509.4Z" fill="#666666"/>
<path d="M495.3 624.2C525.068 624.2 549.2 596.666 549.2 562.7C549.2 528.735 525.068 501.2 495.3 501.2C465.532 501.2 441.4 528.735 441.4 562.7C441.4 596.666 465.532 624.2 495.3 624.2Z" fill="#808080"/>
<path d="M495.3 596.9C511.869 596.9 525.3 581.588 525.3 562.7C525.3 543.812 511.869 528.5 495.3 528.5C478.731 528.5 465.3 543.812 465.3 562.7C465.3 581.588 478.731 596.9 495.3 596.9Z" fill="#999999"/>
<path fill-rule="evenodd" clip-rule="evenodd" d="M737.6 322.3H558.6C547.5 322.3 536.5 331.4 534.2 342.6L514.8 437H415.1C384.4 437 359.2 462.2 359.2 492.9V548.8H734.3V436.9L753.7 342.5C756 331.4 748.7 322.3 737.6 322.3ZM744.9 340.8L727 428H525.8L543 344.4C544.4 337.6 551.6 331.3 558.7 331.3H737.6C743.2 331.3 746 335.4 744.9 340.8Z" fill="#FFD866"/>
<path fill-rule="evenodd" clip-rule="evenodd" d="M1010.9 436.9H570.5C539.8 436.9 514.6 462.1 514.6 492.8V548.7H1051.9V477.9C1051.8 455.4 1033.4 436.9 1010.9 436.9Z" fill="#DBBB5C"/>
<path fill-rule="evenodd" clip-rule="evenodd" d="M519 528.2C512.6 528.2 507.3 533.4 507.3 539.8V562.2C507.3 568.6 512.5 573.8 519 573.8H596C595.4 570.2 595.1 566.5 595.1 562.6C595.1 549.8 598.5 537.9 604.4 528.1H519V528.2Z" fill="#B3B3B3"/>
<path fill-rule="evenodd" clip-rule="evenodd" d="M1050.6 528.2H693.8C699.7 538 703.1 549.9 703.1 562.7C703.1 566.5 702.8 570.2 702.2 573.9H1050.7C1057.1 573.9 1062.3 568.7 1062.3 562.3V539.9C1062.3 533.5 1057 528.2 1050.6 528.2Z" fill="#B3B3B3"/>
<path fill-rule="evenodd" clip-rule="evenodd" d="M518 528.2H349.4C343 528.2 337.8 533.4 337.8 539.8V562.2C337.8 568.6 343 573.8 349.4 573.8H518C524.4 573.8 529.6 568.6 529.6 562.2V539.8C529.7 533.5 524.5 528.2 518 528.2Z" fill="#CCCCCC"/>
<path d="M371.3 519.3C384.665 519.3 395.5 508.465 395.5 495.1C395.5 481.735 384.665 470.9 371.3 470.9C357.935 470.9 347.1 481.735 347.1 495.1C347.1 508.465 357.935 519.3 371.3 519.3Z" fill="#CCCCCC"/>
<path d="M474.5 519.3C487.865 519.3 498.7 508.465 498.7 495.1C498.7 481.735 487.865 470.9 474.5 470.9C461.135 470.9 450.3 481.735 450.3 495.1C450.3 508.465 461.135 519.3 474.5 519.3Z" fill="#CCCCCC"/>
<path fill-rule="evenodd" clip-rule="evenodd" d="M622.1 624.3H649.1V616.1C662.5 607.2 672.3 592 675.2 573.9H569.1C573.7 602.6 595.7 624.3 622.1 624.3Z" fill="#666666"/>
<path fill-rule="evenodd" clip-rule="evenodd" d="M649.1 483.3C609.4 483.3 577.3 518.9 577.3 562.7C577.3 566.5 577.5 570.2 578 573.9H720.2C720.7 570.3 720.9 566.5 720.9 562.7C720.9 518.9 688.8 483.3 649.1 483.3Z" fill="#B3B3B3"/>
<path d="M649.1 624.2C678.868 624.2 703 596.666 703 562.7C703 528.735 678.868 501.2 649.1 501.2C619.332 501.2 595.2 528.735 595.2 562.7C595.2 596.666 619.332 624.2 649.1 624.2Z" fill="#808080"/>
<path fill-rule="evenodd" clip-rule="evenodd" d="M649.1 501.2C619.3 501.2 595.2 528.8 595.2 562.8C595.2 566.6 595.5 570.3 596.1 574H702.2C702.8 570.4 703.1 566.7 703.1 562.8C703 528.7 678.9 501.2 649.1 501.2Z" fill="#808080"/>
<path d="M649.1 596.9C665.669 596.9 679.1 581.588 679.1 562.7C679.1 543.812 665.669 528.5 649.1 528.5C632.531 528.5 619.1 543.812 619.1 562.7C619.1 581.588 632.531 596.9 649.1 596.9Z" fill="#999999"/>
<path fill-rule="evenodd" clip-rule="evenodd" d="M896.5 624.3H923.5V616.1C936.9 607.2 946.7 592 949.6 573.9H843.5C848.1 602.6 870.1 624.3 896.5 624.3Z" fill="#666666"/>
<path fill-rule="evenodd" clip-rule="evenodd" d="M923.5 483.3C883.8 483.3 851.7 518.9 851.7 562.7C851.7 566.5 851.9 570.2 852.4 573.9H994.6C995.1 570.3 995.3 566.5 995.3 562.7C995.3 518.9 963.2 483.3 923.5 483.3Z" fill="#B3B3B3"/>
<path d="M923.5 624.2C953.268 624.2 977.4 596.666 977.4 562.7C977.4 528.735 953.268 501.2 923.5 501.2C893.732 501.2 869.6 528.735 869.6 562.7C869.6 596.666 893.732 624.2 923.5 624.2Z" fill="#808080"/>
<path fill-rule="evenodd" clip-rule="evenodd" d="M923.5 501.2C893.7 501.2 869.6 528.8 869.6 562.8C869.6 566.6 869.9 570.3 870.5 574H976.6C977.2 570.4 977.5 566.7 977.5 562.8C977.4 528.7 953.3 501.2 923.5 501.2Z" fill="#808080"/>
<path d="M923.5 596.9C940.069 596.9 953.5 581.588 953.5 562.7C953.5 543.812 940.069 528.5 923.5 528.5C906.931 528.5 893.5 543.812 893.5 562.7C893.5 581.588 906.931 596.9 923.5 596.9Z" fill="#999999"/>
<path fill-rule="evenodd" clip-rule="evenodd" d="M643.9 296.7H594.9V307.7C594.9 313.7 599.8 318.6 605.9 318.6H654.9V307.7C654.8 301.6 649.9 296.7 643.9 296.7Z" fill="#735139"/>
<path fill-rule="evenodd" clip-rule="evenodd" d="M892.7 295.1H870.3C859.8 295.1 851.3 303.7 851.3 314.1V323.3H885.4L888.7 310.4L888.8 323.3V363.6H892.7C903.2 363.6 911.7 355 911.7 344.6V314.1C911.7 303.7 903.1 295.1 892.7 295.1Z" fill="#735139"/>
<path fill-rule="evenodd" clip-rule="evenodd" d="M798 460.3H776.3C773.7 460.3 771.6 462.4 771.6 465C771.6 467.6 773.7 469.7 776.3 469.7H798C800.6 469.7 802.7 467.6 802.7 465C802.6 462.4 800.5 460.3 798 460.3Z" fill="#B3B3B3"/>
<path fill-rule="evenodd" clip-rule="evenodd" d="M649.1 533.5C642.6 533.5 636.7 536.2 632.2 540.7C631.5 547.7 632.9 555.3 636.6 562.2C643.4 574.9 656.1 582.1 668.6 581.7C672.4 576.6 674.7 570 674.7 562.8C674.7 546.6 663.2 533.5 649.1 533.5Z" fill="#B3B3B3"/>
<path fill-rule="evenodd" clip-rule="evenodd" d="M923.5 533.5C917 533.5 911.1 536.2 906.6 540.7C905.9 547.7 907.3 555.3 911 562.2C917.8 574.9 930.5 582.1 943 581.7C946.8 576.6 949.1 570 949.1 562.8C949.1 546.6 937.7 533.5 923.5 533.5Z" fill="#B3B3B3"/>
<path fill-rule="evenodd" clip-rule="evenodd" d="M367.6 222.8C364.9 208.2 352 197.1 336.6 197.1H331.8C316.4 197.1 303.6 208.2 300.8 222.8C287.2 226.3 277.1 238.7 277.1 253.3C277.1 270.6 291.3 284.8 308.6 284.8H359.7C377 284.8 391.2 270.6 391.2 253.3C391.2 238.6 381.1 226.3 367.6 222.8Z" fill="#FFEDB8"/>
<path fill-rule="evenodd" clip-rule="evenodd" d="M1106.1 318.6C1103.4 304 1090.5 292.9 1075.1 292.9H1070.3C1054.9 292.9 1042.1 304 1039.3 318.6C1025.7 322.1 1015.6 334.5 1015.6 349.1C1015.6 366.4 1029.8 380.6 1047.1 380.6H1098.1C1115.4 380.6 1129.6 366.4 1129.6 349.1C1129.8 334.5 1119.7 322.1 1106.1 318.6Z" fill="#FFEDB8"/>
</svg>
